0
SECTION
2
HEADER
9
$ACADVER
1
AC1009
0
ENDSEC
0
SECTION
2
ENTITIES
0
TEXT
8
TEXT
10
-3.200
20
3.050
30
0
40
0.140
1
Autonomous amphibious hybrid watering hexacopter - top plan
0
CIRCLE
8
HUB
10
0.000
20
0.000
30
0
40
0.420
0
CIRCLE
8
TANK
10
0.000
20
0.000
30
0
40
0.580
0
TEXT
8
TEXT
10
-0.350
20
-0.060
30
0
40
0.090
1
CoG / baffled 5 gal tank
0
LINE
8
CARBON_BOOM
10
0.350
20
0.000
30
0
11
2.000
21
0.000
31
0
0
LINE
8
CARBON_BOOM
10
0.350
20
0.040
30
0
11
2.000
21
0.040
31
0
0
LINE
8
CARBON_BOOM
10
0.350
20
-0.040
30
0
11
2.000
21
-0.040
31
0
0
CIRCLE
8
MOTOR
10
2.150
20
0.000
30
0
40
0.180
0
LINE
8
PROP
10
1.600
20
0.000
30
0
11
2.700
21
0.000
31
0
0
LINE
8
PROP
10
2.150
20
0.550
30
0
11
2.150
21
-0.550
31
0
0
CIRCLE
8
NOZZLE
10
1.650
20
0.000
30
0
40
0.045
0
LINE
8
SPRAY_LINE
10
0.550
20
0.000
30
0
11
1.650
21
0.000
31
0
0
LINE
8
CARBON_BOOM
10
0.175
20
0.303
30
0
11
1.000
21
1.732
31
0
0
LINE
8
CARBON_BOOM
10
0.140
20
0.323
30
0
11
0.965
21
1.752
31
0
0
LINE
8
CARBON_BOOM
10
0.210
20
0.283
30
0
11
1.035
21
1.712
31
0
0
CIRCLE
8
MOTOR
10
1.075
20
1.862
30
0
40
0.180
0
LINE
8
PROP
10
0.800
20
1.386
30
0
11
1.350
21
2.338
31
0
0
LINE
8
PROP
10
0.599
20
2.137
30
0
11
1.551
21
1.587
31
0
0
CIRCLE
8
NOZZLE
10
0.825
20
1.429
30
0
40
0.045
0
LINE
8
SPRAY_LINE
10
0.275
20
0.476
30
0
11
0.825
21
1.429
31
0
0
LINE
8
CARBON_BOOM
10
-0.175
20
0.303
30
0
11
-1.000
21
1.732
31
0
0
LINE
8
CARBON_BOOM
10
-0.210
20
0.283
30
0
11
-1.035
21
1.712
31
0
0
LINE
8
CARBON_BOOM
10
-0.140
20
0.323
30
0
11
-0.965
21
1.752
31
0
0
CIRCLE
8
MOTOR
10
-1.075
20
1.862
30
0
40
0.180
0
LINE
8
PROP
10
-0.800
20
1.386
30
0
11
-1.350
21
2.338
31
0
0
LINE
8
PROP
10
-1.551
20
1.587
30
0
11
-0.599
21
2.137
31
0
0
CIRCLE
8
NOZZLE
10
-0.825
20
1.429
30
0
40
0.045
0
LINE
8
SPRAY_LINE
10
-0.275
20
0.476
30
0
11
-0.825
21
1.429
31
0
0
LINE
8
CARBON_BOOM
10
-0.350
20
0.000
30
0
11
-2.000
21
0.000
31
0
0
LINE
8
CARBON_BOOM
10
-0.350
20
-0.040
30
0
11
-2.000
21
-0.040
31
0
0
LINE
8
CARBON_BOOM
10
-0.350
20
0.040
30
0
11
-2.000
21
0.040
31
0
0
CIRCLE
8
MOTOR
10
-2.150
20
0.000
30
0
40
0.180
0
LINE
8
PROP
10
-1.600
20
0.000
30
0
11
-2.700
21
0.000
31
0
0
LINE
8
PROP
10
-2.150
20
-0.550
30
0
11
-2.150
21
0.550
31
0
0
CIRCLE
8
NOZZLE
10
-1.650
20
0.000
30
0
40
0.045
0
LINE
8
SPRAY_LINE
10
-0.550
20
0.000
30
0
11
-1.650
21
0.000
31
0
0
LINE
8
CARBON_BOOM
10
-0.175
20
-0.303
30
0
11
-1.000
21
-1.732
31
0
0
LINE
8
CARBON_BOOM
10
-0.140
20
-0.323
30
0
11
-0.965
21
-1.752
31
0
0
LINE
8
CARBON_BOOM
10
-0.210
20
-0.283
30
0
11
-1.035
21
-1.712
31
0
0
CIRCLE
8
MOTOR
10
-1.075
20
-1.862
30
0
40
0.180
0
LINE
8
PROP
10
-0.800
20
-1.386
30
0
11
-1.350
21
-2.338
31
0
0
LINE
8
PROP
10
-0.599
20
-2.137
30
0
11
-1.551
21
-1.587
31
0
0
CIRCLE
8
NOZZLE
10
-0.825
20
-1.429
30
0
40
0.045
0
LINE
8
SPRAY_LINE
10
-0.275
20
-0.476
30
0
11
-0.825
21
-1.429
31
0
0
LINE
8
CARBON_BOOM
10
0.175
20
-0.303
30
0
11
1.000
21
-1.732
31
0
0
LINE
8
CARBON_BOOM
10
0.210
20
-0.283
30
0
11
1.035
21
-1.712
31
0
0
LINE
8
CARBON_BOOM
10
0.140
20
-0.323
30
0
11
0.965
21
-1.752
31
0
0
CIRCLE
8
MOTOR
10
1.075
20
-1.862
30
0
40
0.180
0
LINE
8
PROP
10
0.800
20
-1.386
30
0
11
1.350
21
-2.338
31
0
0
LINE
8
PROP
10
1.551
20
-1.587
30
0
11
0.599
21
-2.137
31
0
0
CIRCLE
8
NOZZLE
10
0.825
20
-1.429
30
0
40
0.045
0
LINE
8
SPRAY_LINE
10
0.275
20
-0.476
30
0
11
0.825
21
-1.429
31
0
0
LINE
8
PONTOON
10
-2.550
20
0.860
30
0
11
2.550
21
0.860
31
0
0
LINE
8
PONTOON
10
-2.550
20
-0.860
30
0
11
2.550
21
-0.860
31
0
0
LINE
8
PONTOON
10
-2.200
20
1.050
30
0
11
2.200
21
1.050
31
0
0
LINE
8
PONTOON
10
-2.200
20
-1.050
30
0
11
2.200
21
-1.050
31
0
0
CIRCLE
8
INTAKE_FILTER
10
1.920
20
-0.860
30
0
40
0.130
0
TEXT
8
TEXT
10
2.150
20
-1.050
30
0
40
0.080
1
marine filter pump + check valve
0
TEXT
8
TEXT
10
-2.900
20
-2.900
30
0
40
0.090
1
Fusion import note: use Insert DXF for 2D sketch; use Insert Mesh for OBJ 3D concept.
0
ENDSEC
0
EOF
